<?xml version="1.0" standalone="no"?>
<!DOCTYPE svg PUBLIC "-//W3C//DTD SVG 1.1//EN" "http://www.w3.org/Graphics/SVG/1.1/DTD/svg11.dtd">
<svg xmlns="http://www.w3.org/2000/svg">
<defs >
<font id="WorkSans" horiz-adv-x="522" ><font-face
    font-family="Work Sans Thin"
    units-per-em="1000"
    panose-1="0 0 3 0 0 0 0 0 0 0"
    ascent="930"
    descent="-243"
    alphabetic="0" />
<glyph unicode=" " glyph-name="space" horiz-adv-x="281" />
<glyph unicode="!" glyph-name="exclam" horiz-adv-x="182" d="M99 170H83V660H99V170ZM101 39T107 33T113 17Q113 7 107 1T91 -5Q81 -5 75 1T69 17Q69 27 75 33T91 39Q101 39 107 33Z" />
<glyph unicode="&quot;" glyph-name="quotedbl" horiz-adv-x="241" d="M175 521H158V680H175V521ZM83 521H66V680H83V521Z" />
<glyph unicode="#" glyph-name="numbersign" horiz-adv-x="632" d="M445 443L412 227H559V213H410L378 0H362L394 213H197L165 0H149L181 213H43V227H183L216 443H73V457H218L249 660H265L234 457H431L462 660H478L447 457H589V443H445ZM429 443H232L199 227H396L429
443Z" />
<glyph unicode="$" glyph-name="dollar" horiz-adv-x="580" d="M291 0Q200 3 138 47T57 171L72 179Q87 103 146 60T291 14V318Q218 333 175 348T101 397T71 487Q71 533 97 572T174 636T291 660V760H305V660Q473 654 514 512L501 502Q465 640 305 646V332Q377 317
420 302T493 255T523 165Q523 117 496 80T420 21T305 0V-100H291V0ZM291 646Q230 646 184 625T112 568T87 487Q87 436 114 407T183 363T291 335V646ZM392 15T449 55T507 165Q507 215 480 244T413 287T305 316V14Q392 15 449 55Z" />
<glyph unicode="%" glyph-name="percent" horiz-adv-x="755" d="M247 660T281 611T316 492Q316 422 282 375T178 327Q109 327 74 374T39 492Q39 562 74 611T178 660Q247 660 281 611ZM591 660H610L163 0H144L591 660ZM117 646T86 602T55 492Q55 427 86 384T178
341Q239 341 269 384T300 492Q300 557 269 601T178 646Q117 646 86 602ZM647 333T681 285T716 166Q716 96 682 48T578 0Q509 0 474 48T438 166Q438 236 473 284T578 333Q647 333 681 285ZM517 319T486 275T454 166Q454 101 485 58T578 14Q638 14 669 57T700 166Q700
231 669 275T578 319Q517 319 486 275Z" />
<glyph unicode="&amp;" glyph-name="ampersand" horiz-adv-x="572" d="M488 43T518 23T579 3L578 -10Q543 -10 511 11T433 85Q361 -10 234 -10Q152 -10 99 30T45 139Q45 188 66 224T124 290T223 355Q170 426 152 460T134 533Q134 594 172 630T274 666Q335 666
371 634T408 548Q408 493 374 450T251 354Q247 352 245 350L290 290L316 256Q396 151 431 109Q464 157 479 223T495 366H510Q510 289 494 219T442 97Q488 43 518 23ZM150 508T156 488T180 441T235 363L241 366Q327 416 359 456T392 548Q392 595 360 623T274 652Q218
652 184 620T150 533Q150 508 156 488ZM356 4T423 97Q372 158 307 245Q280 281 232 343Q172 308 137 282T82 221T61 139Q61 77 109 41T231 4Q356 4 423 97Z" />
<glyph unicode="&apos;" glyph-name="quotesingle" horiz-adv-x="149" d="M83 521H66V680H83V521Z" />
<glyph unicode="(" glyph-name="parenleft" horiz-adv-x="253" d="M244 730Q154 655 111 545T68 285Q68 135 111 25T244 -160L236 -170Q142 -90 98 20T53 285Q53 439 97 549T236 740L244 730Z" />
<glyph unicode=")" glyph-name="parenright" horiz-adv-x="253" d="M111 660T155 550T200 285Q200 131 156 21T17 -170L9 -160Q99 -85 142 25T185 285Q185 435 142 545T9 730L17 740Q111 660 155 550Z" />
<glyph unicode="*" glyph-name="asterisk" horiz-adv-x="510" d="M310 451L389 342L376 333L297 441L255 503L213 441L134 333L121 342L200 451L245 510L173 531L46 573L51 588L178 547L249 522L247 596V730H263V596L261 522L331 547L459 588L464 573L336 531L265
510L310 451Z" />
<glyph unicode="+" glyph-name="plus" horiz-adv-x="604" d="M534 309H310V79H294V309H70V323H294V545H310V323H534V309Z" />
<glyph unicode="," glyph-name="comma" horiz-adv-x="168" d="M101 39T109 27T118 -6Q118 -36 103 -64T59 -107L47 -98Q72 -88 89 -63T106 -12Q106 -5 102 7H100Q95 -5 83 -5Q74 -5 68 1T62 17Q62 26 68 32T85 39Q101 39 109 27Z" />
<glyph unicode="-" glyph-name="hyphen" horiz-adv-x="417" d="M349 262H68V278H349V262Z" />
<glyph unicode="." glyph-name="period" horiz-adv-x="168" d="M94 39T100 33T106 17Q106 7 100 1T84 -5Q74 -5 68 1T62 17Q62 27 68 33T84 39Q94 39 100 33Z" />
<glyph unicode="/" glyph-name="slash" horiz-adv-x="349" d="M52 -70H35L296 730H313L52 -70Z" />
<glyph unicode="0" glyph-name="zero" horiz-adv-x="590" d="M182 -10T121 78T60 330Q60 494 121 582T295 670Q408 670 469 582T530 330Q530 166 469 78T295 -10Q182 -10 121 78ZM401 4T457 88T514 330Q514 488 458 572T295 656Q189 656 133 572T76 330Q76 172
132 88T295 4Q401 4 457 88Z" />
<glyph unicode="1" glyph-name="one" horiz-adv-x="316" d="M224 660V0H208V518V630Q179 583 133 550T33 500L28 513Q86 534 135 572T208 660H224Z" />
<glyph unicode="2" glyph-name="two" horiz-adv-x="534" d="M54 14L86 41Q223 154 293 219T405 348T448 475Q448 560 398 608T260 656Q172 656 119 603T62 458L47 464Q52 558 108 614T260 670Q355 670 409 618T463 475Q463 408 423 345T314 217T107 37L81 15V14H109H492V0H54V14Z"
/>
<glyph unicode="3" glyph-name="three" horiz-adv-x="521" d="M345 670T395 625T445 498Q445 434 412 389T317 333V332Q381 327 421 282T462 170Q462 116 435 76T363 13T261 -10Q172 -10 116 30T43 141L57 150Q71 82 123 43T261 4Q313 4 355 24T421 82T446 171Q446
239 402 282T277 326H227V340H277Q349 340 389 385T429 498Q429 572 383 614T256 656Q192 656 145 622T80 526L64 535Q86 598 137 634T256 670Q345 670 395 625Z" />
<glyph unicode="4" glyph-name="four" horiz-adv-x="550" d="M527 205H388V0H372V205H38V219L366 660H388V219H527V205ZM56 219H372V643H371L328 584L56 219Z" />
<glyph unicode="5" glyph-name="five" horiz-adv-x="535" d="M340 400T387 374T460 302T486 196Q486 136 459 89T384 16T275 -10Q81 -10 50 149L64 155Q76 78 131 41T275 4Q332 4 376 28T445 96T470 196Q470 251 446 294T379 362T280 386Q150 386 86 301H72L102
660H461V646H115L89 337L87 318H88Q147 400 280 400Q340 400 387 374Z" />
<glyph unicode="6" glyph-name="six" horiz-adv-x="540" d="M372 670T414 638T476 550L461 543Q446 594 406 625T303 656Q182 656 126 558T70 317Q70 259 80 194H82Q80 253 108 299T185 370T287 395Q382 395 436 340T491 192Q491 100 435 45T283 -10Q170 -10 113
76T55 330Q55 441 87 517T175 632T303 670Q372 670 414 638ZM231 381T188 354T120 283T95 194Q95 140 118 97T185 29T282 4Q371 4 423 56T475 194Q475 277 424 329T287 381Q231 381 188 354Z" />
<glyph unicode="7" glyph-name="seven" horiz-adv-x="494" d="M485 660V646Q364 516 299 358T217 0H200Q216 195 280 355T467 646H22V660H485Z" />
<glyph unicode="8" glyph-name="eight" horiz-adv-x="562" d="M371 670T425 626T479 508Q479 445 441 404T336 348V347Q414 334 460 286T507 169Q507 117 479 77T399 13T281 -10Q215 -10 164 13T84 76T55 169Q55 237 102 285T226 347V348Q159 362 121 403T83 508Q83
582 136 626T281 670Q371 670 425 626ZM198 656T149 616T99 508Q99 439 149 397T281 355Q363 355 413 397T463 508Q463 575 414 615T281 656Q198 656 149 616ZM342 4T390 25T464 83T491 169Q491 218 465 256T390 317T281 339Q220 339 172 317T98 257T71 169Q71
121 97 84T172 25T281 4Q342 4 390 25Z" />
<glyph unicode="9" glyph-name="nine" horiz-adv-x="566" d="M385 670T445 582T506 330Q506 219 476 143T394 28T272 -10Q191 -10 134 28T63 130L80 139Q91 77 141 41T272 4Q387 4 439 99T491 334Q491 398 479 470H477Q480 409 450 362T371 290T268 265Q171 265
114 320T57 468Q57 560 115 615T271 670Q385 670 445 582ZM181 656T127 604T73 466Q73 382 126 331T268 279Q323 279 368 306T440 377T466 466Q466 520 442 563T373 631T272 656Q181 656 127 604Z" />
<glyph unicode=":" glyph-name="colon" horiz-adv-x="192" d="M106 500T112 494T118 478Q118 468 112 462T96 456Q86 456 80 462T74 478Q74 488 80 494T96 500Q106 500 112 494ZM106 39T112 33T118 17Q118 7 112 1T96 -5Q86 -5 80 1T74 17Q74 27 80 33T96 39Q106
39 112 33Z" />
<glyph unicode=";" glyph-name="semicolon" horiz-adv-x="192" d="M89 456T83 462T77 478Q77 488 83 494T99 500Q109 500 115 494T121 478Q121 468 115 462T99 456Q89 456 83 462ZM112 39T120 27T129 -6Q129 -36 114 -64T70 -107L58 -98Q83 -88 100 -63T117 -12Q117
-5 113 7H111Q107 -5 94 -5Q85 -5 79 1T73 17Q73 26 79 32T96 39Q112 39 120 27Z" />
<glyph unicode="&lt;" glyph-name="less" horiz-adv-x="604" d="M533 523L105 300L533 76V58L91 290V309L533 541V523Z" />
<glyph unicode="=" glyph-name="equal" horiz-adv-x="604" d="M517 408H87V422H517V408ZM517 204H87V218H517V204Z" />
<glyph unicode="&gt;" glyph-name="greater" horiz-adv-x="604" d="M513 309V290L71 58V76L499 300L71 523V541L513 309Z" />
<glyph unicode="?" glyph-name="question" horiz-adv-x="473" d="M327 670T379 625T432 501Q432 416 385 364T234 281V150H218V290Q293 313 336 341T397 407T416 501Q416 573 368 614T242 656Q150 656 103 615T44 495L30 501Q43 584 94 627T242 670Q327 670 379
625ZM236 39T242 33T248 17Q248 7 242 1T226 -5Q216 -5 210 1T204 17Q204 27 210 33T226 39Q236 39 242 33Z" />
<glyph unicode="@" glyph-name="at" horiz-adv-x="944" d="M619 670T711 611T844 456T885 245Q885 125 852 58T761 -10Q709 -10 686 26T663 140Q644 69 594 30T471 -10Q404 -10 354 20T277 105T249 235Q249 307 276 361T354 445T471 475Q544 475 594 437T663 330V456H677V132Q677
71 699 38T764 4Q813 4 841 68T869 245Q869 357 830 449T703 599T476 656Q354 656 262 605T120 458T70 234Q70 107 122 14T270 -128T490 -177Q554 -177 619 -156T725 -97L735 -110Q691 -147 624 -169T490 -191Q360 -191 261 -141T108 6T54 234Q54 366 106 464T253
616T476 670Q619 670 711 611ZM409 461T363 433T291 354T265 235Q265 166 290 114T362 33T471 4Q529 4 572 32T639 110T663 221V251Q663 310 640 358T573 433T471 461Q409 461 363 433Z" />
<glyph unicode="A" glyph-name="A" horiz-adv-x="586" d="M460 234H126L29 0H12L284 660H302L574 0H557L460 234ZM454 248L310 596L293 642L276 597L132 248H454Z" />
<glyph unicode="B" glyph-name="B" horiz-adv-x="609" d="M99 660H331Q431 660 482 618T533 493Q533 362 401 334V333Q473 323 512 281T552 169Q552 86 496 43T331 0H99V660ZM331 340Q423 340 470 378T517 492Q517 568 470 607T331 646H115V340H331ZM331 14Q432
14 484 53T536 170Q536 248 485 287T331 326H115V14H331Z" />
<glyph unicode="C" glyph-name="C" horiz-adv-x="649" d="M585 82T517 36T349 -10Q262 -10 196 31T93 150T56 330Q56 433 92 510T195 628T349 670Q556 670 605 496L590 489Q565 573 506 614T349 656Q266 656 204 616T107 503T72 330Q72 231 106 158T204 44T349
4Q443 4 507 47T595 171L610 165Q585 82 517 36Z" />
<glyph unicode="D" glyph-name="D" horiz-adv-x="684" d="M462 660T544 579T627 340Q627 173 545 87T302 0H99V660H302Q462 660 544 579ZM454 14T532 96T611 340Q611 491 533 568T302 646H115V14H302Q454 14 532 96Z" />
<glyph unicode="E" glyph-name="E" horiz-adv-x="583" d="M553 14V0H99V660H536V646H115V344H453V330H115V14H553Z" />
<glyph unicode="F" glyph-name="F" horiz-adv-x="554" d="M115 646V344H453V330H115V0H99V660H535V646H115Z" />
<glyph unicode="G" glyph-name="G" horiz-adv-x="676" d="M610 311V0H594V159Q574 80 510 35T345 -10Q258 -10 193 31T92 150T56 330Q56 433 92 510T195 628T349 670Q556 670 605 496L591 489Q566 573 506 614T349 656Q266 656 204 616T107 503T72 330Q72 231
106 158T201 44T345 4Q437 4 493 43T571 137T594 244V297H353V311H610Z" />
<glyph unicode="H" glyph-name="H" horiz-adv-x="696" d="M597 660V0H581V330H115V0H99V660H115V344H581V660H597Z" />
<glyph unicode="I" glyph-name="I" horiz-adv-x="214" d="M115 0H99V660H115V0Z" />
<glyph unicode="J" glyph-name="J" horiz-adv-x="498" d="M406 209Q406 107 356 49T212 -10Q125 -10 77 36T29 161Q29 179 32 200L48 208Q45 186 45 165Q45 87 88 46T212 4Q299 4 344 58T390 209V660H406V209Z" />
<glyph unicode="K" glyph-name="K" horiz-adv-x="557" d="M263 384L115 234V0H99V660H115V257L511 660H534L275 396L544 0H523L263 384Z" />
<glyph unicode="L" glyph-name="L" horiz-adv-x="543" d="M531 14V0H99V660H115V14H531Z" />
<glyph unicode="M" glyph-name="M" horiz-adv-x="786" d="M687 0H671V580L672 637L403 0H383L114 637L115 580V0H99V660H120L381 48L393 19L405 47L666 660H687V0Z" />
<glyph unicode="N" glyph-name="N" horiz-adv-x="694" d="M595 0H573L140 605L114 644L115 587V0H99V660H121L554 55L580 16L579 73V660H595V0Z" />
<glyph unicode="O" glyph-name="O" horiz-adv-x="714" d="M449 670T517 629T621 511T658 330Q658 226 622 150T517 32T357 -10Q265 -10 197 31T93 149T56 330Q56 434 92 510T197 628T357 670Q449 670 517 629ZM270 656T206 616T107 503T72 330Q72 231 106 158T205
44T357 4Q444 4 508 44T607 157T642 330Q642 429 608 502T509 616T357 656Q270 656 206 616Z" />
<glyph unicode="P" glyph-name="P" horiz-adv-x="561" d="M409 660T468 611T528 475Q528 388 469 340T303 291H115V0H99V660H303Q409 660 468 611ZM401 305T456 350T512 475Q512 555 457 600T303 646H115V305H303Q401 305 456 350Z" />
<glyph unicode="Q" glyph-name="Q" horiz-adv-x="714" d="M604 -181T640 -144L648 -157Q608 -195 536 -195Q460 -195 411 -146T356 -10Q265 -10 197 31T93 149T56 330Q56 434 92 510T197 628T357 670Q449 670 517 629T621 511T658 330Q658 229 623 153T523 35T370
-10Q375 -92 420 -136T536 -181Q604 -181 640 -144ZM72 231T106 158T205 44T357 4Q444 4 508 44T607 157T642 330Q642 429 608 502T509 616T357 656Q270 656 206 616T107 503T72 330Q72 231 106 158Z" />
<glyph unicode="R" glyph-name="R" horiz-adv-x="611" d="M558 0L358 301Q352 300 338 300H115V0H99V660H338Q435 660 491 612T547 480Q547 405 502 359T377 302L576 0H558ZM338 314Q429 314 480 358T531 480Q531 558 480 602T338 646H115V314H338Z" />
<glyph unicode="S" glyph-name="S" horiz-adv-x="594" d="M491 670T536 517L523 507Q484 656 295 656Q230 656 180 635T103 576T76 492Q76 448 98 419T172 368T316 331Q401 316 452 295T525 241T548 160Q548 111 518 72T433 12T309 -10Q201 -10 130 34T42 166L57
174Q70 90 138 47T309 4Q405 4 468 45T532 160Q532 223 483 259T313 315Q217 331 162 353T84 409T60 492Q60 540 88 580T170 645T295 670Q491 670 536 517Z" />
<glyph unicode="T" glyph-name="T" horiz-adv-x="544" d="M533 646H280V0H264V646H11V660H533V646Z" />
<glyph unicode="U" glyph-name="U" horiz-adv-x="680" d="M589 235Q589 118 524 54T340 -10Q222 -10 157 54T91 235V660H107V235Q107 125 168 65T340 4Q450 4 511 64T573 235V660H589V235Z" />
<glyph unicode="V" glyph-name="V" horiz-adv-x="576" d="M299 0H277L17 660H34L261 87L288 18L315 87L542 660H559L299 0Z" />
<glyph unicode="W" glyph-name="W" horiz-adv-x="909" d="M262 0H241L23 660H40L252 16L444 660H465L657 16L869 660H886L668 0H647L455 638H454L414 502L262 0Z" />
<glyph unicode="X" glyph-name="X" horiz-adv-x="526" d="M489 0L263 326L33 0H12L253 342L33 660H53L263 356L478 660H500L274 340L509 0H489Z" />
<glyph unicode="Y" glyph-name="Y" horiz-adv-x="512" d="M264 256V0H248V256L16 660H35L256 273L477 660H496L264 256Z" />
<glyph unicode="Z" glyph-name="Z" horiz-adv-x="552" d="M528 14V0H29V14L490 646H36V660H508V646L47 14H528Z" />
<glyph unicode="[" glyph-name="bracketleft" horiz-adv-x="268" d="M91 716V-154H257V-168H76V730H257V716H91Z" />
<glyph unicode="\" glyph-name="backslash" horiz-adv-x="349" d="M53 730L314 -70H297L36 730H53Z" />
<glyph unicode="]" glyph-name="bracketright" horiz-adv-x="268" d="M192 -168H11V-154H177V716H11V730H192V-168Z" />
<glyph unicode="^" glyph-name="asciicircum" horiz-adv-x="533" d="M477 355L267 714L56 355H37L257 730H276L496 355H477Z" />
<glyph unicode="_" glyph-name="underscore" horiz-adv-x="499" d="M499 -111H0V-97H499V-111Z" />
<glyph unicode="`" glyph-name="grave" horiz-adv-x="550" d="M255 583H240L152 730H170L255 583Z" />
<glyph unicode="a" glyph-name="a" horiz-adv-x="517" d="M504 4T516 13L515 -1Q502 -10 479 -10Q449 -10 428 10T407 82V96Q387 45 329 18T202 -10Q129 -10 88 21T46 108Q46 167 89 201T230 253L407 286V348Q407 418 366 457T248 496Q179 496 135 468T69 378L56
388Q79 450 126 480T248 510Q333 510 378 469T423 348V76Q423 40 437 22T478 4Q504 4 516 13ZM250 4T296 20T375 69T407 151V272L241 241Q145 223 104 191T62 108Q62 59 100 32T207 4Q250 4 296 20Z" />
<glyph unicode="b" glyph-name="b" horiz-adv-x="585" d="M413 510T473 441T534 250Q534 128 474 59T305 -10Q226 -10 173 32T101 150V0H85V730H101V352Q120 428 173 469T305 510Q413 510 473 441ZM404 4T461 69T518 250Q518 366 461 431T302 496Q210 496 156
431T101 253V246Q101 134 155 69T302 4Q404 4 461 69Z" />
<glyph unicode="c" glyph-name="c" horiz-adv-x="524" d="M356 510T408 474T478 373L464 366Q448 428 400 462T281 496Q180 496 124 431T67 250Q67 134 122 69T278 4Q350 4 404 42T468 142L482 137Q469 71 412 31T278 -10Q170 -10 111 59T51 250Q51 372 112 441T281
510Q356 510 408 474Z" />
<glyph unicode="d" glyph-name="d" horiz-adv-x="585" d="M500 730V0H484V150Q465 74 412 32T280 -10Q172 -10 112 59T51 250Q51 372 111 441T280 510Q358 510 411 469T484 352V730H500ZM375 4T429 69T484 246V253Q484 366 430 431T283 496Q181 496 124 431T67
250Q67 134 124 69T283 4Q375 4 429 69Z" />
<glyph unicode="e" glyph-name="e" horiz-adv-x="534" d="M486 239H67Q70 128 126 66T280 4Q343 4 393 34T469 116L482 109Q456 53 402 22T280 -10Q172 -10 112 59T51 250Q51 372 110 441T275 510Q374 510 430 440T486 246V239ZM178 496T123 432T67 254H472Q470
368 419 432T275 496Q178 496 123 432Z" />
<glyph unicode="f" glyph-name="f" horiz-adv-x="320" d="M190 721T159 685T128 583V500H314V486H128V0H112V486H12V500H112V583Q112 654 147 694T245 735Q294 735 322 704L315 692Q302 708 286 714T245 721Q190 721 159 685Z" />
<glyph unicode="g" glyph-name="g" horiz-adv-x="496" d="M402 37T447 7T492 -73Q492 -115 464 -147T383 -197T264 -215Q158 -215 96 -179T34 -81Q34 -39 64 -10T146 29Q108 39 87 61T65 114Q65 152 94 177T169 210Q117 227 89 264T60 353Q60 424 114 467T258
510Q330 510 379 481Q382 532 412 562T491 592L496 578Q449 578 422 550T392 473Q422 452 438 422T454 353Q454 282 401 239T258 196Q230 196 200 201Q148 198 115 174T81 116Q81 81 113 59T203 37H326Q402 37 447 7ZM76 288T126 249T258 210Q340 210 389 249T438
353Q438 418 389 457T258 496Q176 496 126 457T76 353Q76 288 126 249ZM325 -201T373 -185T448 -141T476 -75Q476 -31 435 -4T325 23H197Q132 23 91 -5T50 -79Q50 -134 108 -167T266 -201Q325 -201 373 -185Z" />
<glyph unicode="h" glyph-name="h" horiz-adv-x="574" d="M396 511T445 464T495 330V1H479V328Q479 408 433 452T306 497Q249 497 202 470T128 399T101 302V0H85V730H101V368Q119 431 175 471T309 511Q396 511 445 464Z" />
<glyph unicode="i" glyph-name="i" horiz-adv-x="186" d="M83 598T77 604T71 620Q71 630 77 636T93 642Q103 642 109 636T115 620Q115 610 109 604T93 598Q83 598 77 604ZM101 0H85V500H101V0Z" />
<glyph unicode="j" glyph-name="j" horiz-adv-x="186" d="M103 642T109 636T115 620Q115 610 109 604T93 598Q83 598 77 604T71 620Q71 630 77 636T93 642Q103 642 109 636ZM101 -64Q101 -133 65 -174T-31 -215Q-52 -215 -71 -209T-102 -193L-97 -179Q-85 -190
-68 -195T-31 -201Q22 -201 53 -164T85 -64V500H101V-64Z" />
<glyph unicode="k" glyph-name="k" horiz-adv-x="482" d="M233 285L101 162V0H85V730H101V184L441 500H465L245 296L470 0H450L233 285Z" />
<glyph unicode="l" glyph-name="l" horiz-adv-x="237" d="M97 107Q97 53 115 29T170 4Q191 4 203 7T228 16V2Q206 -10 170 -10Q125 -10 103 18T81 107V730H97V107Z" />
<glyph unicode="m" glyph-name="m" horiz-adv-x="968" d="M790 512T839 465T889 331V2H873V329Q873 409 827 453T700 498Q643 498 596 471T522 400T495 303V0H479V327Q479 407 433 451T306 496Q249 496 202 469T128 398T101 301V0H85V500H101V367Q119 430 175
470T309 510Q387 510 435 471T493 361Q508 427 565 469T703 512Q790 512 839 465Z" />
<glyph unicode="n" glyph-name="n" horiz-adv-x="574" d="M396 510T445 463T495 329V0H479V327Q479 407 433 451T306 496Q249 496 202 469T128 398T101 301V0H85V500H101V367Q119 430 175 470T309 510Q396 510 445 463Z" />
<glyph unicode="o" glyph-name="o" horiz-adv-x="569" d="M394 510T456 441T518 250Q518 129 456 60T285 -10Q176 -10 114 59T51 250Q51 371 113 440T285 510Q394 510 456 441ZM184 496T126 431T67 250Q67 135 125 70T285 4Q386 4 444 69T502 250Q502 365 444
430T285 496Q184 496 126 431Z" />
<glyph unicode="p" glyph-name="p" horiz-adv-x="585" d="M413 510T473 441T534 250Q534 128 474 59T305 -10Q227 -10 174 31T101 148V-210H85V500H101V350Q120 426 173 468T305 510Q413 510 473 441ZM404 4T461 69T518 250Q518 366 461 431T302 496Q210 496 156
431T101 254V247Q101 134 155 69T302 4Q404 4 461 69Z" />
<glyph unicode="q" glyph-name="q" horiz-adv-x="586" d="M501 500V-210H485V148Q466 72 413 31T281 -10Q173 -10 113 59T52 250Q52 372 112 441T281 510Q360 510 413 468T485 350V500H501ZM376 4T430 69T485 247V254Q485 366 431 431T284 496Q182 496 125 431T68
250Q68 134 125 69T284 4Q376 4 430 69Z" />
<glyph unicode="r" glyph-name="r" horiz-adv-x="343" d="M312 510T336 486L327 474Q316 485 303 490T263 496Q218 496 181 467T123 391T101 291V0H85V500H101V370Q118 431 162 470T265 510Q312 510 336 486Z" />
<glyph unicode="s" glyph-name="s" horiz-adv-x="479" d="M160 -10T106 21T37 111L52 118Q65 63 115 34T243 4Q322 4 369 36T416 124Q416 170 379 197T246 240Q143 258 101 288T59 374Q59 412 83 443T149 492T244 510Q402 510 429 385L415 377Q390 496 244 496Q196
496 158 481T97 438T75 378Q75 328 114 300T251 254Q351 237 391 207T432 124Q432 62 381 26T240 -10Q160 -10 106 21Z" />
<glyph unicode="t" glyph-name="t" horiz-adv-x="329" d="M327 28Q311 11 286 1T231 -10Q111 -10 111 126V486H11V500H111V630L127 635V500H320V486H127V126Q127 65 152 35T231 4Q285 4 319 41L327 28Z" />
<glyph unicode="u" glyph-name="u" horiz-adv-x="564" d="M479 500V0H463V133Q445 70 389 30T254 -10Q171 -10 125 36T79 167V500H95V169Q95 90 137 47T257 4Q324 4 370 35T440 110T463 196V500H479Z" />
<glyph unicode="v" glyph-name="v" horiz-adv-x="481" d="M459 500L249 0H232L22 500H40L241 20L441 500H459Z" />
<glyph unicode="w" glyph-name="w" horiz-adv-x="779" d="M750 500L584 0H568L390 477L211 0H195L29 500H46L203 23L381 500H398L576 23L733 500H750Z" />
<glyph unicode="x" glyph-name="x" horiz-adv-x="472" d="M438 0L234 247L41 0H19L223 260L26 500H50L235 275L411 500H433L246 262L462 0H438Z" />
<glyph unicode="y" glyph-name="y" horiz-adv-x="481" d="M210 -101Q184 -165 153 -190T74 -215Q47 -215 27 -207T-4 -183L5 -170Q25 -201 75 -201Q116 -201 143 -179T195 -98L235 -1L22 500H40L225 60L243 18L260 61L441 500H459L210 -101Z" />
<glyph unicode="z" glyph-name="z" horiz-adv-x="472" d="M39 14L370 437L410 486H31V500H429V486L117 83L60 14H445V0H39V14Z" />
<glyph unicode="{" glyph-name="braceleft" horiz-adv-x="259" d="M138 348T118 322T60 286Q97 275 117 249T138 185V-58Q138 -104 165 -130T239 -156V-170Q184 -170 153 -140T122 -58V185Q122 229 92 254T8 279V292Q61 292 91 317T122 386V628Q122 680 153 710T239
740V726Q192 726 165 700T138 628V386Q138 348 118 322Z" />
<glyph unicode="|" glyph-name="bar" horiz-adv-x="167" d="M91 -168H76V730H91V-168Z" />
<glyph unicode="}" glyph-name="braceright" horiz-adv-x="259" d="M137 342T167 317T251 292V279Q198 279 168 254T137 185V-58Q137 -110 106 -140T20 -170V-156Q67 -156 94 -130T121 -58V185Q121 223 141 249T199 286Q162 296 142 322T121 386V628Q121 674 94
700T20 726V740Q75 740 106 710T137 628V386Q137 342 167 317Z" />
<glyph unicode="~" glyph-name="asciitilde" horiz-adv-x="479" d="M423 301T341 301Q310 301 287 310T234 339Q204 357 184 366T138 375Q103 375 85 356T59 295H43Q56 389 138 389Q169 389 192 380T245 351Q275 333 295 324T341 315Q376 315 394 334T420 395H436Q423
301 341 301Z" />
<glyph unicode="&#xa0;" glyph-name="uni00A0" horiz-adv-x="281" />
<glyph unicode="&#xa1;" glyph-name="exclamdown" horiz-adv-x="174" d="M77 461T71 467T65 483Q65 493 71 499T87 505Q97 505 103 499T109 483Q109 473 103 467T87 461Q77 461 71 467ZM79 330H95V-160H79V330Z" />
<glyph unicode="&#xa2;" glyph-name="cent" horiz-adv-x="537" d="M474 70T418 30T284 -10V-100H270V-10Q168 -6 112 63T56 250Q56 367 112 436T270 510V600H284V510H286Q361 510 413 474T483 373L469 366Q453 428 405 462T286 496H284V4Q355 4 409 42T473 142L487
137Q474 70 418 30ZM72 138T123 73T270 4V496Q176 490 124 425T72 250Q72 138 123 73Z" />
<glyph unicode="&#xa3;" glyph-name="sterling" horiz-adv-x="573" d="M537 115Q537 52 503 21T408 -10Q363 -10 334 5T266 51Q242 22 205 6T126 -10Q83 -10 57 8T31 56Q31 87 58 106T133 125Q174 125 203 112T264 72Q289 108 289 154Q289 193 276 225T227 303H94V317H216Q175
370 159 407T143 488Q143 570 196 620T335 670Q408 670 454 631T508 525L493 519Q487 581 444 618T335 656Q254 656 207 611T159 488Q159 448 175 412T232 322L236 317H447V303H247Q279 259 292 226T305 156Q305 103 275 62Q310 33 338 19T408 4Q464 4 493 32T523
115H537ZM166 4T199 19T255 60Q226 85 199 98T134 111Q94 111 71 96T47 56Q47 32 68 18T126 4Q166 4 199 19Z" />
<glyph unicode="&#xa4;" glyph-name="currency" horiz-adv-x="602" d="M477 256T436 206L540 102L529 91L425 195Q378 148 301 148Q226 148 177 194L74 91L62 103L165 206Q124 256 124 333Q124 408 163 456L62 557L74 569L174 468Q222 516 301 516Q379 516 427
468L529 569L540 558L438 455Q477 407 477 333Q477 256 436 206ZM375 162T418 208T461 333Q461 410 418 456T301 502Q227 502 184 456T140 333Q140 254 183 208T301 162Q375 162 418 208Z" />
<glyph unicode="&#xa5;" glyph-name="yen" horiz-adv-x="568" d="M499 270V256H292V147H499V133H292V0H276V133H70V147H276V256H70V270H270L44 660H63L269 297L283 273H285L299 297L505 660H524L298 270H499Z" />
<glyph unicode="&#xa6;" glyph-name="brokenbar" horiz-adv-x="181" d="M98 364H83V730H98V364ZM98 -168H83V198H98V-168Z" />
<glyph unicode="&#xa7;" glyph-name="section" horiz-adv-x="536" d="M503 219T467 187T371 143Q415 125 434 98T453 29Q453 -9 432 -41T370 -91T272 -110Q204 -110 159 -89T97 -25L110 -16Q137 -96 272 -96Q349 -96 393 -62T437 28Q437 84 394 114T244 160Q171
171 129 188T68 230T49 294Q49 341 85 372T179 417Q137 435 118 462T99 531Q99 569 120 601T182 651T280 670Q348 670 393 649T455 585L442 576Q415 656 280 656Q203 656 159 622T115 532Q115 476 158 446T308 400Q381 389 423 372T484 330T503 266Q503 219 467
187ZM409 161T448 190T487 266Q487 316 447 342T305 385Q240 394 198 409Q142 398 104 369T65 294Q65 261 82 239T138 201T247 175Q311 165 352 150Q409 161 448 190Z" />
<glyph unicode="&#xa8;" glyph-name="dieresis" horiz-adv-x="550" d="M193 642T199 636T205 620Q205 610 199 604T183 598Q173 598 167 604T161 620Q161 630 167 636T183 642Q193 642 199 636ZM377 642T383 636T389 620Q389 610 383 604T367 598Q357 598 351
604T345 620Q345 630 351 636T367 642Q377 642 383 636Z" />
<glyph unicode="&#xa9;" glyph-name="copyright" horiz-adv-x="796" d="M499 670T577 628T697 508T740 330Q740 229 698 152T577 33T398 -10Q297 -10 219 32T99 152T56 330Q56 431 98 508T219 627T398 670Q499 670 577 628ZM302 656T228 615T113 500T72 330Q72
234 113 160T228 45T398 4Q494 4 568 45T683 160T724 330Q724 426 683 500T568 615T398 656Q302 656 228 615ZM467 513T505 488T559 413L545 406Q517 499 409 499Q332 499 288 454T244 328Q244 248 288 203T409 157Q462 157 500 185T549 259L564 253Q551 203 509
173T410 143Q324 143 276 192T228 328Q228 415 276 464T410 513Q467 513 505 488Z" />
<glyph unicode="&#xaa;" glyph-name="ordfeminine" horiz-adv-x="352" d="M338 340T347 346V332Q337 326 320 326Q273 326 273 385V394Q260 362 222 344T141 326Q92 326 63 347T34 407Q34 445 64 469T159 504L273 524V556Q273 601 246 626T169 651Q123 651 95
634T53 579L40 584Q53 623 86 644T169 665Q225 665 257 638T289 558V383Q289 340 321 340Q338 340 347 346ZM170 340T200 351T252 383T273 435V510L166 491Q104 480 77 459T49 406Q49 375 73 358T141 340Q170 340 200 351ZM38 237H335V223H38V237Z" />
<glyph unicode="&#xab;" glyph-name="guillemotleft" horiz-adv-x="379" d="M66 265L211 69H190L46 265L190 461H211L66 265ZM184 265L329 69H308L164 265L308 461H329L184 265Z" />
<glyph unicode="&#xac;" glyph-name="logicalnot" horiz-adv-x="604" d="M527 323V176H511V309H77V323H527Z" />
<glyph unicode="&#xad;" glyph-name="uni00AD" horiz-adv-x="417" d="M349 262H68V278H349V262Z" />
<glyph unicode="&#xae;" glyph-name="registered" horiz-adv-x="796" d="M499 670T577 628T697 508T740 330Q740 229 698 152T577 33T398 -10Q297 -10 219 32T99 152T56 330Q56 431 98 508T219 627T398 670Q499 670 577 628ZM494 4T568 45T683 160T724 330Q724
426 683 500T568 615T398 656Q302 656 228 615T113 500T72 330Q72 234 113 160T228 45T398 4Q494 4 568 45ZM550 320T448 312L556 143H538L430 311H292V143H276V513H431Q550 513 550 412Q550 320 448 312ZM292 324H431Q535 326 535 412Q535 499 431 499H292V324Z"
/>
<glyph unicode="&#xaf;" glyph-name="overscore" horiz-adv-x="550" d="M419 605H131V619H419V605Z" />
<glyph unicode="&#xb0;" glyph-name="degree" horiz-adv-x="370" d="M125 400T88 437T51 535Q51 595 88 632T185 670Q245 670 282 633T319 535Q319 475 282 438T185 400Q125 400 88 437ZM239 414T271 447T303 535Q303 589 271 622T185 656Q131 656 99 623T67 535Q67
481 99 448T185 414Q239 414 271 447Z" />
<glyph unicode="&#xb1;" glyph-name="plusminus" horiz-adv-x="604" d="M527 374V360H310V106H295V360H77V374H295V622H310V374H527ZM77 14H527V0H77V14Z" />
<glyph unicode="&#xb2;" glyph-name="uni00B2" horiz-adv-x="329" d="M37 348L151 445Q204 490 235 532T266 617Q266 664 237 692T159 721Q108 721 78 691T45 609L30 612Q35 667 69 701T159 735Q216 735 249 703T282 616Q282 536 160 433L59 348V347H85H298V333H37V348Z" />
<glyph unicode="&#xb3;" glyph-name="uni00B3" horiz-adv-x="306" d="M195 735T226 706T257 630Q257 594 239 569T184 534V532Q222 528 244 502T267 438Q267 387 232 357T142 327Q91 327 59 351T14 418L27 426Q36 386 65 364T144 341Q192 341 221 366T251 437Q251
479 225 502T149 526H124V540H149Q192 540 216 566T241 630Q241 672 215 696T143 721Q102 721 75 702T40 648L26 655Q37 691 68 713T142 735Q195 735 226 706Z" />
<glyph unicode="&#xb4;" glyph-name="acute" horiz-adv-x="550" d="M398 730L310 583H295L380 730H398Z" />
<glyph unicode="&#xb5;" glyph-name="uni00B5" horiz-adv-x="548" d="M474 500V0H458V133Q440 70 384 30T249 -10Q193 -10 151 17T90 94V-210H74V500H90V169Q90 91 134 48T252 4Q310 4 357 31T431 102T458 199V500H474Z" />
<glyph unicode="&#xb6;" glyph-name="paragraph" horiz-adv-x="516" d="M435 -100H419V646H280V-100H264V254Q194 254 141 279T59 351T30 457Q30 517 58 563T139 634T259 660H435V-100ZM199 646T150 623T73 556T46 457Q46 401 73 358T149 292T264 268V646Q199
646 150 623Z" />
<glyph unicode="&#xb7;" glyph-name="middot" horiz-adv-x="192" d="M106 382T112 376T118 360Q118 350 112 344T96 338Q86 338 80 344T74 360Q74 370 80 376T96 382Q106 382 112 376Z" />
<glyph unicode="&#xb8;" glyph-name="cedilla" horiz-adv-x="550" d="M274 3Q333 -25 356 -53T380 -118Q380 -155 356 -178T292 -202Q260 -202 238 -193T198 -160L206 -148Q224 -171 244 -180T292 -189Q324 -189 344 -170T365 -119Q365 -86 342 -59T253 3H274Z" />
<glyph unicode="&#xb9;" glyph-name="uni00B9" horiz-adv-x="194" d="M136 730V333H120V643Q120 664 122 708Q90 664 11 633V646Q41 656 75 679T123 730H136Z" />
<glyph unicode="&#xba;" glyph-name="ordmasculine" horiz-adv-x="354" d="M105 327T72 367T38 496Q38 584 71 624T177 665Q249 665 282 625T316 496Q316 408 283 368T177 327Q105 327 72 367ZM241 341T270 378T300 496Q300 576 271 613T177 651Q113 651 84 614T54
496Q54 416 83 379T177 341Q241 341 270 378ZM44 237H310V223H44V237Z" />
<glyph unicode="&#xbb;" glyph-name="guillemotright" horiz-adv-x="375" d="M67 461L211 265L67 69H46L191 265L46 461H67ZM185 461L329 265L185 69H164L309 265L164 461H185Z" />
<glyph unicode="&#xbc;" glyph-name="onequarter" horiz-adv-x="635" d="M136 665V268H120V578Q120 599 122 643Q90 599 11 568V581Q41 591 75 614T123 665H136ZM518 660H537L72 0H53L518 660ZM616 116H535V-4H519V116H321V130L513 393H535V130H616V116ZM519 130V335V377H518L486
332L338 130H519Z" />
<glyph unicode="&#xbd;" glyph-name="onehalf" horiz-adv-x="725" d="M136 665V268H120V578Q120 599 122 643Q90 599 11 568V581Q41 591 75 614T123 665H136ZM518 660H537L72 0H53L518 660ZM433 11L547 108Q600 153 631 195T662 280Q662 327 633 355T555 384Q504
384 474 354T441 272L426 275Q431 330 465 364T555 398Q612 398 645 366T678 279Q678 199 556 96L455 11V10H481H694V-4H433V11Z" />
<glyph unicode="&#xbe;" glyph-name="threequarters" horiz-adv-x="747" d="M195 670T226 641T257 565Q257 529 239 504T184 469V467Q222 463 244 437T267 373Q267 322 232 292T142 262Q91 262 59 286T14 353L27 361Q36 321 65 299T144 276Q192 276 221 301T251
372Q251 414 225 437T149 461H124V475H149Q192 475 216 501T241 565Q241 607 215 631T143 656Q102 656 75 637T40 583L26 590Q37 626 68 648T142 670Q195 670 226 641ZM630 660H649L184 0H165L630 660ZM728 116H647V-4H631V116H433V130L625 393H647V130H728V116ZM631
130V335V377H630L598 332L450 130H631Z" />
<glyph unicode="&#xbf;" glyph-name="questiondown" horiz-adv-x="469" d="M235 456T229 462T223 478Q223 488 229 494T245 500Q255 500 261 494T267 478Q267 468 261 462T245 456Q235 456 229 462ZM144 -175T92 -130T39 -6Q39 79 86 131T237 214V345H253V205Q178
182 135 154T74 88T55 -6Q55 -78 103 -119T229 -161Q321 -161 368 -120T427 0L441 -6Q428 -89 377 -132T229 -175Q144 -175 92 -130Z" />
<glyph unicode="&#xc0;" glyph-name="Agrave" horiz-adv-x="586" d="M276 743L198 891H216L291 743H276ZM460 234H126L29 0H12L284 660H302L574 0H557L460 234ZM454 248L310 596L293 642L276 597L132 248H454Z" />
<glyph unicode="&#xc1;" glyph-name="Aacute" horiz-adv-x="586" d="M307 743H292L367 891H385L307 743ZM460 234H126L29 0H12L284 660H302L574 0H557L460 234ZM454 248L310 596L293 642L276 597L132 248H454Z" />
<glyph unicode="&#xc2;" glyph-name="Acircumflex" horiz-adv-x="586" d="M191 743H174L283 885H303L412 743H395L293 872L191 743ZM460 234H126L29 0H12L284 660H302L574 0H557L460 234ZM454 248L310 596L293 642L276 597L132 248H454Z" />
<glyph unicode="&#xc3;" glyph-name="Atilde" horiz-adv-x="586" d="M460 234H126L29 0H12L284 660H302L574 0H557L460 234ZM454 248L310 596L293 642L276 597L132 248H454ZM444 799T424 779T367 759Q340 759 324 768T288 795Q270 812 256 820T220 828Q188 828
174 812T151 758H136Q144 802 164 822T221 842Q248 842 264 833T300 806Q316 790 330 782T367 773Q399 773 414 789T437 843H452Q444 799 424 779Z" />
<glyph unicode="&#xc4;" glyph-name="Adieresis" horiz-adv-x="586" d="M460 234H126L29 0H12L284 660H302L574 0H557L460 234ZM454 248L310 596L293 642L276 597L132 248H454ZM210 802T216 796T222 780Q222 770 216 764T200 758Q190 758 184 764T178 780Q178
790 184 796T200 802Q210 802 216 796ZM394 802T400 796T406 780Q406 770 400 764T384 758Q374 758 368 764T362 780Q362 790 368 796T384 802Q394 802 400 796Z" />
<glyph unicode="&#xc5;" glyph-name="Aring" horiz-adv-x="586" d="M460 234H126L29 0H12L279 647Q253 652 237 670T221 716Q221 747 241 766T293 786Q325 786 345 767T365 716Q365 688 349 670T307 647L574 0H557L460 234ZM237 691T252 676T293 660Q319 660 334
675T349 716Q349 742 334 757T293 772Q268 772 253 757T237 716Q237 691 252 676ZM454 248L310 596L293 642L276 597L132 248H454Z" />
<glyph unicode="&#xc6;" glyph-name="AE" horiz-adv-x="885" d="M855 14V0H438V254H174L15 0H-8L412 660H839V646H454V342H762V328H454V14H855ZM438 268V646H420L183 268H438Z" />
<glyph unicode="&#xc7;" glyph-name="Ccedilla" horiz-adv-x="649" d="M586 83T519 37T355 -10Q400 -35 418 -60T436 -118Q436 -155 412 -178T348 -202Q316 -202 294 -193T254 -160L262 -148Q280 -171 300 -180T348 -189Q380 -189 400 -170T421 -119Q421 -89 402
-64T332 -10Q249 -6 187 37T90 155T56 330Q56 433 92 510T195 628T349 670Q556 670 605 496L590 489Q565 573 506 614T349 656Q266 656 204 616T107 503T72 330Q72 231 106 158T204 44T349 4Q443 4 507 47T595 171L610 165Q586 83 519 37Z" />
<glyph unicode="&#xc8;" glyph-name="Egrave" horiz-adv-x="583" d="M320 743L242 891H260L335 743H320ZM553 14V0H99V660H536V646H115V344H453V330H115V14H553Z" />
<glyph unicode="&#xc9;" glyph-name="Eacute" horiz-adv-x="583" d="M321 743H306L381 891H399L321 743ZM553 14V0H99V660H536V646H115V344H453V330H115V14H553Z" />
<glyph unicode="&#xca;" glyph-name="Ecircumflex" horiz-adv-x="583" d="M215 743H198L307 885H327L436 743H419L317 872L215 743ZM553 14V0H99V660H536V646H115V344H453V330H115V14H553Z" />
<glyph unicode="&#xcb;" glyph-name="Edieresis" horiz-adv-x="583" d="M553 14V0H99V660H536V646H115V344H453V330H115V14H553ZM234 802T240 796T246 780Q246 770 240 764T224 758Q214 758 208 764T202 780Q202 790 208 796T224 802Q234 802 240 796ZM418 802T424
796T430 780Q430 770 424 764T408 758Q398 758 392 764T386 780Q386 790 392 796T408 802Q418 802 424 796Z" />
<glyph unicode="&#xcc;" glyph-name="Igrave" horiz-adv-x="214" d="M105 743H90L12 891H30L105 743ZM115 0H99V660H115V0Z" />
<glyph unicode="&#xcd;" glyph-name="Iacute" horiz-adv-x="214" d="M199 891L121 743H106L181 891H199ZM115 0H99V660H115V0Z" />
<glyph unicode="&#xce;" glyph-name="Icircumflex" horiz-adv-x="214" d="M209 743L107 872L5 743H-12L97 885H117L226 743H209ZM115 0H99V660H115V0Z" />
<glyph unicode="&#xcf;" glyph-name="Idieresis" horiz-adv-x="214" d="M58 802T64 796T70 780Q70 770 64 764T48 758Q38 758 32 764T26 780Q26 790 32 796T48 802Q58 802 64 796ZM176 802T182 796T188 780Q188 770 182 764T166 758Q156 758 150 764T144 780Q144
790 150 796T166 802Q176 802 182 796ZM115 0H99V660H115V0Z" />
<glyph unicode="&#xd0;" glyph-name="Eth" horiz-adv-x="691" d="M470 660T552 579T635 340Q635 173 553 87T310 0H107V327H5V341H107V660H310Q470 660 552 579ZM462 14T540 96T619 340Q619 491 541 568T310 646H123V341H330V327H123V14H310Q462 14 540 96Z" />
<glyph unicode="&#xd1;" glyph-name="Ntilde" horiz-adv-x="694" d="M595 0H573L140 605L114 644L115 587V0H99V660H121L554 55L580 16L579 73V660H595V0ZM504 799T484 779T427 759Q400 759 384 768T348 795Q330 812 316 820T280 828Q248 828 234 812T211 758H196Q204
802 224 822T281 842Q308 842 324 833T360 806Q376 790 390 782T427 773Q459 773 474 789T497 843H512Q504 799 484 779Z" />
<glyph unicode="&#xd2;" glyph-name="Ograve" horiz-adv-x="714" d="M355 743H340L262 891H280L355 743ZM449 670T517 629T621 511T658 330Q658 226 622 150T517 32T357 -10Q265 -10 197 31T93 149T56 330Q56 434 92 510T197 628T357 670Q449 670 517 629ZM270
656T206 616T107 503T72 330Q72 231 106 158T205 44T357 4Q444 4 508 44T607 157T642 330Q642 429 608 502T509 616T357 656Q270 656 206 616Z" />
<glyph unicode="&#xd3;" glyph-name="Oacute" horiz-adv-x="714" d="M449 891L371 743H356L431 891H449ZM449 670T517 629T621 511T658 330Q658 226 622 150T517 32T357 -10Q265 -10 197 31T93 149T56 330Q56 434 92 510T197 628T357 670Q449 670 517 629ZM270
656T206 616T107 503T72 330Q72 231 106 158T205 44T357 4Q444 4 508 44T607 157T642 330Q642 429 608 502T509 616T357 656Q270 656 206 616Z" />
<glyph unicode="&#xd4;" glyph-name="Ocircumflex" horiz-adv-x="714" d="M459 743L357 872L255 743H238L347 885H367L476 743H459ZM449 670T517 629T621 511T658 330Q658 226 622 150T517 32T357 -10Q265 -10 197 31T93 149T56 330Q56 434 92 510T197 628T357
670Q449 670 517 629ZM270 656T206 616T107 503T72 330Q72 231 106 158T205 44T357 4Q444 4 508 44T607 157T642 330Q642 429 608 502T509 616T357 656Q270 656 206 616Z" />
<glyph unicode="&#xd5;" glyph-name="Otilde" horiz-adv-x="714" d="M449 670T517 629T621 511T658 330Q658 226 622 150T517 32T357 -10Q265 -10 197 31T93 149T56 330Q56 434 92 510T197 628T357 670Q449 670 517 629ZM270 656T206 616T107 503T72 330Q72 231
106 158T205 44T357 4Q444 4 508 44T607 157T642 330Q642 429 608 502T509 616T357 656Q270 656 206 616ZM508 799T488 779T431 759Q404 759 388 768T352 795Q334 812 320 820T284 828Q252 828 238 812T215 758H200Q208 802 228 822T285 842Q312 842 328 833T364
806Q380 790 394 782T431 773Q463 773 478 789T501 843H516Q508 799 488 779Z" />
<glyph unicode="&#xd6;" glyph-name="Odieresis" horiz-adv-x="714" d="M449 670T517 629T621 511T658 330Q658 226 622 150T517 32T357 -10Q265 -10 197 31T93 149T56 330Q56 434 92 510T197 628T357 670Q449 670 517 629ZM270 656T206 616T107 503T72 330Q72
231 106 158T205 44T357 4Q444 4 508 44T607 157T642 330Q642 429 608 502T509 616T357 656Q270 656 206 616ZM274 802T280 796T286 780Q286 770 280 764T264 758Q254 758 248 764T242 780Q242 790 248 796T264 802Q274 802 280 796ZM458 802T464 796T470 780Q470
770 464 764T448 758Q438 758 432 764T426 780Q426 790 432 796T448 802Q458 802 464 796Z" />
<glyph unicode="&#xd7;" glyph-name="multiply" horiz-adv-x="604" d="M315 312L480 147L467 134L302 299L137 134L124 147L289 312L124 477L137 490L302 325L467 490L480 477L315 312Z" />
<glyph unicode="&#xd8;" glyph-name="Oslash" horiz-adv-x="714" d="M608 551T633 484T658 330Q658 226 622 150T517 32T357 -10Q242 -10 166 54L106 -30H86L155 64Q107 109 82 176T56 330Q56 434 92 510T197 628T357 670Q471 670 548 607L608 690H628L560 596Q608
551 633 484ZM72 248T95 184T164 76L539 594Q465 656 357 656Q270 656 206 616T107 503T72 330Q72 248 95 184ZM444 4T508 44T607 157T642 330Q642 412 619 476T550 584L175 66Q248 4 357 4Q444 4 508 44Z" />
<glyph unicode="&#xd9;" glyph-name="Ugrave" horiz-adv-x="680" d="M358 743H343L265 891H283L358 743ZM589 235Q589 118 524 54T340 -10Q222 -10 157 54T91 235V660H107V235Q107 125 168 65T340 4Q450 4 511 64T573 235V660H589V235Z" />
<glyph unicode="&#xda;" glyph-name="Uacute" horiz-adv-x="680" d="M432 891L354 743H339L414 891H432ZM589 235Q589 118 524 54T340 -10Q222 -10 157 54T91 235V660H107V235Q107 125 168 65T340 4Q450 4 511 64T573 235V660H589V235Z" />
<glyph unicode="&#xdb;" glyph-name="Ucircumflex" horiz-adv-x="680" d="M442 743L340 872L238 743H221L330 885H350L459 743H442ZM589 235Q589 118 524 54T340 -10Q222 -10 157 54T91 235V660H107V235Q107 125 168 65T340 4Q450 4 511 64T573 235V660H589V235Z" />
<glyph unicode="&#xdc;" glyph-name="Udieresis" horiz-adv-x="680" d="M589 235Q589 118 524 54T340 -10Q222 -10 157 54T91 235V660H107V235Q107 125 168 65T340 4Q450 4 511 64T573 235V660H589V235ZM257 802T263 796T269 780Q269 770 263 764T247 758Q237
758 231 764T225 780Q225 790 231 796T247 802Q257 802 263 796ZM441 802T447 796T453 780Q453 770 447 764T431 758Q421 758 415 764T409 780Q409 790 415 796T431 802Q441 802 447 796Z" />
<glyph unicode="&#xdd;" glyph-name="Yacute" horiz-adv-x="512" d="M348 891L270 743H255L330 891H348ZM264 256V0H248V256L16 660H35L256 273L477 660H496L264 256Z" />
<glyph unicode="&#xde;" glyph-name="Thorn" horiz-adv-x="567" d="M409 525T468 479T527 340Q527 248 468 202T294 155H115V0H99V660H115V525H294Q409 525 468 479ZM406 169T458 212T511 340Q511 425 459 468T303 511H115V169H303Q406 169 458 212Z" />
<glyph unicode="&#xdf;" glyph-name="germandbls" horiz-adv-x="555" d="M410 373T458 322T506 182Q506 95 455 43T320 -10Q287 -10 260 1T215 34L224 44Q243 22 266 13T320 3Q397 3 443 52T490 182Q490 275 437 322T292 370H248V384H292Q367 384 414 431T461
563Q461 637 416 679T293 721Q198 721 149 666T100 505V0H85V516Q85 624 138 679T293 735Q379 735 428 689T477 561Q477 508 457 468T401 404T323 378V377Q410 373 458 322Z" />
<glyph unicode="&#xe0;" glyph-name="agrave" horiz-adv-x="517" d="M504 4T516 13L515 -1Q502 -10 479 -10Q449 -10 428 10T407 82V96Q387 45 329 18T202 -10Q129 -10 88 21T46 108Q46 167 89 201T230 253L407 286V348Q407 418 366 457T248 496Q179 496 135 468T69
378L56 388Q79 450 126 480T248 510Q333 510 378 469T423 348V76Q423 40 437 22T478 4Q504 4 516 13ZM250 4T296 20T375 69T407 151V272L241 241Q145 223 104 191T62 108Q62 59 100 32T207 4Q250 4 296 20ZM509 583H494L406 730H424L509 583Z" />
<glyph unicode="&#xe1;" glyph-name="aacute" horiz-adv-x="517" d="M504 4T516 13L515 -1Q502 -10 479 -10Q449 -10 428 10T407 82V96Q387 45 329 18T202 -10Q129 -10 88 21T46 108Q46 167 89 201T230 253L407 286V348Q407 418 366 457T248 496Q179 496 135 468T69
378L56 388Q79 450 126 480T248 510Q333 510 378 469T423 348V76Q423 40 437 22T478 4Q504 4 516 13ZM250 4T296 20T375 69T407 151V272L241 241Q145 223 104 191T62 108Q62 59 100 32T207 4Q250 4 296 20ZM594 730L506 583H491L576 730H594Z" />
<glyph unicode="&#xe2;" glyph-name="acircumflex" horiz-adv-x="517" d="M504 4T516 13L515 -1Q502 -10 479 -10Q449 -10 428 10T407 82V96Q387 45 329 18T202 -10Q129 -10 88 21T46 108Q46 167 89 201T230 253L407 286V348Q407 418 366 457T248 496Q179 496
135 468T69 378L56 388Q79 450 126 480T248 510Q333 510 378 469T423 348V76Q423 40 437 22T478 4Q504 4 516 13ZM250 4T296 20T375 69T407 151V272L241 241Q145 223 104 191T62 108Q62 59 100 32T207 4Q250 4 296 20ZM598 583L498 712L398 583H381L489 725H507L615
583H598Z" />
<glyph unicode="&#xe3;" glyph-name="atilde" horiz-adv-x="517" d="M504 4T516 13L515 -1Q502 -10 479 -10Q449 -10 428 10T407 82V96Q387 45 329 18T202 -10Q129 -10 88 21T46 108Q46 167 89 201T230 253L407 286V348Q407 418 366 457T248 496Q179 496 135 468T69
378L56 388Q79 450 126 480T248 510Q333 510 378 469T423 348V76Q423 40 437 22T478 4Q504 4 516 13ZM250 4T296 20T375 69T407 151V272L241 241Q145 223 104 191T62 108Q62 59 100 32T207 4Q250 4 296 20ZM649 639T629 619T572 599Q545 599 529 608T493 635Q475
652 461 660T425 668Q393 668 379 652T356 598H341Q349 642 369 662T426 682Q453 682 469 673T505 646Q521 630 535 622T572 613Q604 613 619 629T642 683H657Q649 639 629 619Z" />
<glyph unicode="&#xe4;" glyph-name="adieresis" horiz-adv-x="517" d="M504 4T516 13L515 -1Q502 -10 479 -10Q449 -10 428 10T407 82V96Q387 45 329 18T202 -10Q129 -10 88 21T46 108Q46 167 89 201T230 253L407 286V348Q407 418 366 457T248 496Q179 496 135
468T69 378L56 388Q79 450 126 480T248 510Q333 510 378 469T423 348V76Q423 40 437 22T478 4Q504 4 516 13ZM250 4T296 20T375 69T407 151V272L241 241Q145 223 104 191T62 108Q62 59 100 32T207 4Q250 4 296 20ZM415 642T421 636T427 620Q427 610 421 604T405
598Q395 598 389 604T383 620Q383 630 389 636T405 642Q415 642 421 636ZM599 642T605 636T611 620Q611 610 605 604T589 598Q579 598 573 604T567 620Q567 630 573 636T589 642Q599 642 605 636Z" />
<glyph unicode="&#xe5;" glyph-name="aring" horiz-adv-x="517" d="M504 4T516 13L515 -1Q502 -10 479 -10Q449 -10 428 10T407 82V96Q387 45 329 18T202 -10Q129 -10 88 21T46 108Q46 167 89 201T230 253L407 286V348Q407 418 366 457T248 496Q179 496 135 468T69
378L56 388Q79 450 126 480T248 510Q333 510 378 469T423 348V76Q423 40 437 22T478 4Q504 4 516 13ZM250 4T296 20T375 69T407 151V272L241 241Q145 223 104 191T62 108Q62 59 100 32T207 4Q250 4 296 20ZM531 735T554 712T578 655Q578 621 555 598T496 575Q461
575 438 598T414 655Q414 689 437 712T496 735Q531 735 554 712ZM468 721T449 702T430 655Q430 627 449 608T496 589Q524 589 543 608T562 655Q562 683 543 702T496 721Q468 721 449 702Z" />
<glyph unicode="&#xe6;" glyph-name="ae" horiz-adv-x="866" d="M423 257V220Q430 118 481 61T616 4Q750 4 796 116L809 109Q759 -10 616 -10Q540 -10 488 34T417 158Q409 71 346 31T202 -10Q131 -10 89 20T46 108Q46 235 230 253L407 271V345Q407 417 366 456T248
496Q180 496 136 468T69 378L56 388Q79 450 126 480T248 510Q329 510 374 472T423 363Q445 434 494 472T615 510Q715 510 766 449T818 264V257H423ZM532 496T481 439T423 280V272H804Q802 385 755 440T615 496Q532 496 481 439ZM252 4T298 21T375 80T407 188V256L241
241Q147 232 105 197T62 108Q62 57 102 31T207 4Q252 4 298 21Z" />
<glyph unicode="&#xe7;" glyph-name="ccedilla" horiz-adv-x="524" d="M469 71T412 31T278 -10H277Q322 -35 340 -60T358 -118Q358 -155 334 -178T270 -202Q238 -202 216 -193T176 -160L184 -148Q202 -171 222 -180T270 -189Q302 -189 322 -170T343 -119Q343 -89
324 -64T253 -9Q156 -1 104 67T51 250Q51 372 112 441T281 510Q356 510 408 474T478 373L464 366Q448 428 400 462T281 496Q180 496 124 431T67 250Q67 134 122 69T278 4Q350 4 404 42T468 142L482 137Q469 71 412 31Z" />
<glyph unicode="&#xe8;" glyph-name="egrave" horiz-adv-x="534" d="M486 239H67Q70 128 126 66T280 4Q343 4 393 34T469 116L482 109Q456 53 402 22T280 -10Q172 -10 112 59T51 250Q51 372 110 441T275 510Q374 510 430 440T486 246V239ZM178 496T123 432T67
254H472Q470 368 419 432T275 496Q178 496 123 432ZM282 583H267L179 730H197L282 583Z" />
<glyph unicode="&#xe9;" glyph-name="eacute" horiz-adv-x="534" d="M486 239H67Q70 128 126 66T280 4Q343 4 393 34T469 116L482 109Q456 53 402 22T280 -10Q172 -10 112 59T51 250Q51 372 110 441T275 510Q374 510 430 440T486 246V239ZM178 496T123 432T67
254H472Q470 368 419 432T275 496Q178 496 123 432ZM623 730L535 583H520L605 730H623Z" />
<glyph unicode="&#xea;" glyph-name="ecircumflex" horiz-adv-x="534" d="M486 239H67Q70 128 126 66T280 4Q343 4 393 34T469 116L482 109Q456 53 402 22T280 -10Q172 -10 112 59T51 250Q51 372 110 441T275 510Q374 510 430 440T486 246V239ZM178 496T123 432T67
254H472Q470 368 419 432T275 496Q178 496 123 432ZM627 583L527 712L427 583H410L518 725H536L644 583H627Z" />
<glyph unicode="&#xeb;" glyph-name="edieresis" horiz-adv-x="534" d="M486 239H67Q70 128 126 66T280 4Q343 4 393 34T469 116L482 109Q456 53 402 22T280 -10Q172 -10 112 59T51 250Q51 372 110 441T275 510Q374 510 430 440T486 246V239ZM178 496T123 432T67
254H472Q470 368 419 432T275 496Q178 496 123 432ZM444 642T450 636T456 620Q456 610 450 604T434 598Q424 598 418 604T412 620Q412 630 418 636T434 642Q444 642 450 636ZM628 642T634 636T640 620Q640 610 634 604T618 598Q608 598 602 604T596 620Q596 630
602 636T618 642Q628 642 634 636Z" />
<glyph unicode="&#xec;" glyph-name="igrave" horiz-adv-x="186" d="M101 0H85V500H101V0ZM104 583H89L1 730H19L104 583Z" />
<glyph unicode="&#xed;" glyph-name="iacute" horiz-adv-x="186" d="M101 0H85V500H101V0ZM189 730L101 583H86L171 730H189Z" />
<glyph unicode="&#xee;" glyph-name="icircumflex" horiz-adv-x="186" d="M101 0H85V500H101V0ZM193 583L93 712L-7 583H-24L84 725H102L210 583H193Z" />
<glyph unicode="&#xef;" glyph-name="idieresis" horiz-adv-x="186" d="M33 598T27 604T21 620Q21 630 27 636T43 642Q53 642 59 636T65 620Q65 610 59 604T43 598Q33 598 27 604ZM133 598T127 604T121 620Q121 630 127 636T143 642Q153 642 159 636T165 620Q165
610 159 604T143 598Q133 598 127 604ZM101 0H85V500H101V0Z" />
<glyph unicode="&#xf0;" glyph-name="eth" horiz-adv-x="577" d="M418 614Q511 493 511 283Q511 138 452 64T287 -10Q215 -10 162 20T80 107T51 237Q51 312 79 368T159 454T279 485Q364 485 420 445T496 334Q486 500 401 610L228 574L224 587L391 622Q331 694
239 730H270Q354 692 409 626L526 651L530 638L418 614ZM384 4T439 70T498 257V272Q494 325 468 370T394 443T279 471Q216 471 168 442T94 360T67 237Q67 130 126 67T287 4Q384 4 439 70Z" />
<glyph unicode="&#xf1;" glyph-name="ntilde" horiz-adv-x="574" d="M396 510T445 463T495 329V0H479V327Q479 407 433 451T306 496Q249 496 202 469T128 398T101 301V0H85V500H101V367Q119 430 175 470T309 510Q396 510 445 463ZM444 639T424 619T367 599Q340
599 324 608T288 635Q270 652 256 660T220 668Q188 668 174 652T151 598H136Q144 642 164 662T221 682Q248 682 264 673T300 646Q316 630 330 622T367 613Q399 613 414 629T437 683H452Q444 639 424 619Z" />
<glyph unicode="&#xf2;" glyph-name="ograve" horiz-adv-x="569" d="M394 510T456 441T518 250Q518 129 456 60T285 -10Q176 -10 114 59T51 250Q51 371 113 440T285 510Q394 510 456 441ZM184 496T126 431T67 250Q67 135 125 70T285 4Q386 4 444 69T502 250Q502
365 444 430T285 496Q184 496 126 431ZM296 583H281L193 730H211L296 583Z" />
<glyph unicode="&#xf3;" glyph-name="oacute" horiz-adv-x="569" d="M394 510T456 441T518 250Q518 129 456 60T285 -10Q176 -10 114 59T51 250Q51 371 113 440T285 510Q394 510 456 441ZM184 496T126 431T67 250Q67 135 125 70T285 4Q386 4 444 69T502 250Q502
365 444 430T285 496Q184 496 126 431ZM637 730L549 583H534L619 730H637Z" />
<glyph unicode="&#xf4;" glyph-name="ocircumflex" horiz-adv-x="569" d="M394 510T456 441T518 250Q518 129 456 60T285 -10Q176 -10 114 59T51 250Q51 371 113 440T285 510Q394 510 456 441ZM184 496T126 431T67 250Q67 135 125 70T285 4Q386 4 444 69T502 250Q502
365 444 430T285 496Q184 496 126 431ZM385 583L285 712L185 583H168L276 725H294L402 583H385Z" />
<glyph unicode="&#xf5;" glyph-name="otilde" horiz-adv-x="569" d="M394 510T456 441T518 250Q518 129 456 60T285 -10Q176 -10 114 59T51 250Q51 371 113 440T285 510Q394 510 456 441ZM184 496T126 431T67 250Q67 135 125 70T285 4Q386 4 444 69T502 250Q502
365 444 430T285 496Q184 496 126 431ZM436 639T416 619T359 599Q332 599 316 608T280 635Q262 652 248 660T212 668Q180 668 166 652T143 598H128Q136 642 156 662T213 682Q240 682 256 673T292 646Q308 630 322 622T359 613Q391 613 406 629T429 683H444Q436
639 416 619Z" />
<glyph unicode="&#xf6;" glyph-name="odieresis" horiz-adv-x="569" d="M394 510T456 441T518 250Q518 129 456 60T285 -10Q176 -10 114 59T51 250Q51 371 113 440T285 510Q394 510 456 441ZM184 496T126 431T67 250Q67 135 125 70T285 4Q386 4 444 69T502 250Q502
365 444 430T285 496Q184 496 126 431ZM202 642T208 636T214 620Q214 610 208 604T192 598Q182 598 176 604T170 620Q170 630 176 636T192 642Q202 642 208 636ZM386 642T392 636T398 620Q398 610 392 604T376 598Q366 598 360 604T354 620Q354 630 360 636T376
642Q386 642 392 636Z" />
<glyph unicode="&#xf7;" glyph-name="divide" horiz-adv-x="604" d="M312 524T318 518T324 502Q324 492 318 486T302 480Q292 480 286 486T280 502Q280 512 286 518T302 524Q312 524 318 518ZM527 309H77V323H527V309ZM312 154T318 148T324 132Q324 122 318 116T302
110Q292 110 286 116T280 132Q280 142 286 148T302 154Q312 154 318 148Z" />
<glyph unicode="&#xf8;" glyph-name="oslash" horiz-adv-x="570" d="M380 510T440 456L498 530H519L452 445Q518 376 518 250Q518 129 456 60T285 -10Q192 -10 132 41L76 -30H55L120 52Q87 86 69 136T51 250Q51 371 113 440T285 510Q380 510 440 456ZM131 65L156
98L431 444Q374 496 285 496Q184 496 126 431T67 250Q67 130 130 65H131ZM386 4T444 69T502 250Q502 367 442 433H441L423 409L142 53Q197 4 285 4Q386 4 444 69Z" />
<glyph unicode="&#xf9;" glyph-name="ugrave" horiz-adv-x="564" d="M479 500V0H463V133Q445 70 389 30T254 -10Q171 -10 125 36T79 167V500H95V169Q95 90 137 47T257 4Q324 4 370 35T440 110T463 196V500H479ZM291 583H276L188 730H206L291 583Z" />
<glyph unicode="&#xfa;" glyph-name="uacute" horiz-adv-x="564" d="M479 500V0H463V133Q445 70 389 30T254 -10Q171 -10 125 36T79 167V500H95V169Q95 90 137 47T257 4Q324 4 370 35T440 110T463 196V500H479ZM632 730L544 583H529L614 730H632Z" />
<glyph unicode="&#xfb;" glyph-name="ucircumflex" horiz-adv-x="564" d="M479 500V0H463V133Q445 70 389 30T254 -10Q171 -10 125 36T79 167V500H95V169Q95 90 137 47T257 4Q324 4 370 35T440 110T463 196V500H479ZM380 583L280 712L180 583H163L271 725H289L397
583H380Z" />
<glyph unicode="&#xfc;" glyph-name="udieresis" horiz-adv-x="564" d="M479 500V0H463V133Q445 70 389 30T254 -10Q171 -10 125 36T79 167V500H95V169Q95 90 137 47T257 4Q324 4 370 35T440 110T463 196V500H479ZM197 642T203 636T209 620Q209 610 203 604T187
598Q177 598 171 604T165 620Q165 630 171 636T187 642Q197 642 203 636ZM381 642T387 636T393 620Q393 610 387 604T371 598Q361 598 355 604T349 620Q349 630 355 636T371 642Q381 642 387 636Z" />
<glyph unicode="&#xfd;" glyph-name="yacute" horiz-adv-x="481" d="M210 -101Q184 -165 153 -190T74 -215Q47 -215 27 -207T-4 -183L5 -170Q25 -201 75 -201Q116 -201 143 -179T195 -98L235 -1L22 500H40L225 60L243 18L260 61L441 500H459L210 -101ZM596 730L508
583H493L578 730H596Z" />
<glyph unicode="&#xfe;" glyph-name="thorn" horiz-adv-x="585" d="M413 510T473 441T534 250Q534 128 474 59T305 -10Q226 -10 173 32T101 150V-210H85V730H101V352Q120 428 173 469T305 510Q413 510 473 441ZM404 4T461 69T518 250Q518 366 461 431T302 496Q210
496 156 431T101 253V246Q101 134 155 69T302 4Q404 4 461 69Z" />
<glyph unicode="&#xff;" glyph-name="ydieresis" horiz-adv-x="481" d="M210 -101Q184 -165 153 -190T74 -215Q47 -215 27 -207T-4 -183L5 -170Q25 -201 75 -201Q116 -201 143 -179T195 -98L235 -1L22 500H40L225 60L243 18L260 61L441 500H459L210 -101ZM417
642T423 636T429 620Q429 610 423 604T407 598Q397 598 391 604T385 620Q385 630 391 636T407 642Q417 642 423 636ZM601 642T607 636T613 620Q613 610 607 604T591 598Q581 598 575 604T569 620Q569 630 575 636T591 642Q601 642 607 636Z" />
<glyph unicode="&#x2013;" glyph-name="endash" horiz-adv-x="609" d="M541 262H68V278H541V262Z" />
<glyph unicode="&#x2014;" glyph-name="emdash" horiz-adv-x="939" d="M871 262H68V278H871V262Z" />
<glyph unicode="&#x2018;" glyph-name="quoteleft" horiz-adv-x="173" d="M71 544T63 556T54 589Q54 619 69 647T113 690L125 681Q100 671 83 646T66 595Q66 588 70 576H72Q77 588 89 588Q98 588 104 582T110 566Q110 557 104 551T87 544Q71 544 63 556Z" />
<glyph unicode="&#x2019;" glyph-name="quoteright" horiz-adv-x="172" d="M107 688T115 676T124 643Q124 613 109 585T65 542L53 551Q78 561 95 586T112 637Q112 644 108 656H106Q101 644 89 644Q80 644 74 650T68 666Q68 675 74 681T91 688Q107 688 115 676Z" />
<glyph unicode="&#x201a;" glyph-name="quotesinglbase" horiz-adv-x="175" d="M101 39T109 27T118 -6Q118 -36 103 -64T59 -107L47 -98Q72 -88 89 -63T106 -12Q106 -5 102 7H100Q95 -5 83 -5Q74 -5 68 1T62 17Q62 26 68 32T85 39Q101 39 109 27Z" />
<glyph unicode="&#x201c;" glyph-name="quotedblleft" horiz-adv-x="271" d="M71 544T63 556T54 589Q54 619 69 647T113 690L125 681Q100 671 83 646T66 595Q66 588 70 576H72Q77 588 89 588Q98 588 104 582T110 566Q110 557 104 551T87 544Q71 544 63 556ZM169
544T161 556T152 589Q152 619 167 647T211 690L223 681Q198 671 181 646T164 595Q164 588 168 576H170Q175 588 187 588Q196 588 202 582T208 566Q208 557 202 551T185 544Q169 544 161 556Z" />
<glyph unicode="&#x201d;" glyph-name="quotedblright" horiz-adv-x="270" d="M107 688T115 676T124 643Q124 613 109 585T65 542L53 551Q78 561 95 586T112 637Q112 644 108 656H106Q101 644 89 644Q80 644 74 650T68 666Q68 675 74 681T91 688Q107 688 115 676ZM205
688T213 676T222 643Q222 613 207 585T163 542L151 551Q176 561 193 586T210 637Q210 644 206 656H204Q199 644 187 644Q178 644 172 650T166 666Q166 675 172 681T189 688Q205 688 213 676Z" />
<glyph unicode="&#x201e;" glyph-name="quotedblbase" horiz-adv-x="273" d="M101 39T109 27T118 -6Q118 -36 103 -64T59 -107L47 -98Q72 -88 89 -63T106 -12Q106 -5 102 7H100Q95 -5 83 -5Q74 -5 68 1T62 17Q62 26 68 32T85 39Q101 39 109 27ZM199 39T207 27T216
-6Q216 -36 201 -64T157 -107L145 -98Q170 -88 187 -63T204 -12Q204 -5 200 7H198Q193 -5 181 -5Q172 -5 166 1T160 17Q160 26 166 32T183 39Q199 39 207 27Z" />
<glyph unicode="&#x2022;" glyph-name="bullet" horiz-adv-x="430" d="M241 399T258 382T275 339Q275 313 258 296T215 279Q189 279 172 296T155 339Q155 365 172 382T215 399Q241 399 258 382Z" />
<glyph unicode="&#x2039;" glyph-name="guilsinglleft" horiz-adv-x="261" d="M66 265L211 69H190L46 265L190 461H211L66 265Z" />
<glyph unicode="&#x203a;" glyph-name="guilsinglright" horiz-adv-x="261" d="M71 461L215 265L71 69H50L195 265L50 461H71Z" />
</font>
</defs>
</svg>
